<svg xmlns="http://www.w3.org/2000/svg" version="1.0" width="512.000000pt" height="512.000000pt" viewBox="0 0 512.000000 512.000000" preserveAspectRatio="xMidYMid meet">

<g transform="translate(0.000000,512.000000) scale(0.100000,-0.100000)" fill="#000000" stroke="none">
<path d="M2800 4840 c-107 -23 -223 -108 -269 -198 -28 -54 -51 -145 -51 -199 l0 -43 -175 0 c-188 0 -217 -6 -234 -49 -5 -14 -46 -407 -90 -873 -86 -904 -85 -884 -34 -907 17 -8 286 -11 924 -11 l900 0 24 25 c14 13 25 35 25 48 0 14 -36 400 -80 860 -44 459 -80 840 -80 846 0 7 -11 23 -25 36 -24 25 -27 25 -188 25 l-164 0 -6 68 c-17 211 -165 361 -370 376 -34 3 -82 1 -107 -4z m188 -179 c80 -41 132 -127 132 -220 l0 -41 -240 0 -240 0 0 41 c0 112 69 204 180 240 39 13 123 3 168 -20z m522 -425 c0 -2 32 -333 70 -736 39 -403 70 -743 70 -756 l0 -24 -790 0 c-434 0 -790 3 -790 6 0 3 32 335 70 739 39 404 70 743 70 754 0 21 1 21 650 21 358 0 650 -2 650 -4z"/>
<path d="M2520 4148 c-69 -37 -40 -206 56 -324 91 -112 260 -168 399 -130 152 40 261 154 295 307 14 64 7 120 -17 140 -20 17 -86 17 -106 0 -9 -7 -19 -29 -22 -50 -13 -87 -35 -137 -77 -178 -97 -95 -227 -97 -329 -5 -49 44 -69 88 -84 183 -3 21 -11 42 -19 48 -21 18 -69 22 -96 9z"/>
<path d="M3910 2431 c-66 -21 -118 -60 -260 -196 l-155 -147 -7 53 c-5 41 -13 59 -33 76 l-26 23 -737 0 -736 0 -308 -307 c-294 -294 -308 -306 -326 -290 -10 9 -34 17 -52 17 -31 0 -54 -20 -254 -219 -206 -206 -220 -222 -220 -256 0 -34 22 -59 460 -496 450 -450 460 -459 499 -459 38 0 47 8 257 218 194 194 218 221 218 250 0 18 -7 44 -16 58 l-17 25 174 169 174 169 483 0 482 1 35 32 c19 18 190 200 380 403 391 418 398 428 399 555 0 130 -68 240 -186 301 -46 24 -180 36 -228 20z m142 -151 c103 -29 158 -144 112 -233 -9 -17 -36 -49 -59 -72 -24 -22 -181 -187 -350 -367 l-307 -328 -486 0 -486 0 -199 -197 -199 -198 -310 314 -310 314 283 283 284 284 653 0 653 0 -3 -77 -3 -78 -395 -5 c-217 -3 -402 -9 -411 -13 -19 -9 -39 -49 -39 -78 0 -11 11 -31 25 -44 l24 -25 432 0 431 0 112 108 c61 59 152 146 201 192 50 47 117 111 151 143 52 50 113 85 149 87 6 0 27 -5 47 -10z m-2395 -1192 l381 -383 -139 -145 -139 -145 -384 384 -385 384 137 143 c75 79 139 143 142 144 3 0 177 -172 387 -382z"/>
</g>
</svg>