<svg xmlns="http://www.w3.org/2000/svg" version="1.0" width="512.000000pt" height="512.000000pt" viewBox="0 0 512.000000 512.000000" preserveAspectRatio="xMidYMid meet">

<g transform="translate(0.000000,512.000000) scale(0.100000,-0.100000)" fill="#000000" stroke="none">
<path d="M2865 4949 c-507 -64 -950 -429 -1115 -919 -46 -137 -61 -236 -67 -450 -4 -134 -9 -208 -17 -212 -6 -4 -120 -8 -254 -8 l-243 0 -24 -25 c-14 -13 -25 -33 -25 -43 0 -11 20 -210 45 -443 25 -233 45 -430 45 -436 0 -10 -24 -13 -85 -13 l-85 0 0 54 c0 37 -6 60 -17 74 -10 12 -112 58 -233 106 l-215 86 -183 0 c-248 0 -232 16 -232 -240 0 -189 0 -191 25 -215 22 -22 32 -25 105 -25 44 0 80 -2 80 -4 0 -3 -9 -21 -21 -40 -12 -20 -27 -57 -35 -82 -18 -59 -126 -1460 -122 -1574 3 -73 8 -96 36 -152 41 -84 128 -167 209 -200 l58 -23 2208 -3 2208 -2 24 24 25 25 0 829 c0 776 -1 831 -18 849 -9 11 -40 38 -67 60 l-51 41 68 634 c37 348 67 646 67 661 1 17 -9 38 -24 52 l-24 25 -243 0 c-134 0 -248 4 -254 8 -8 4 -13 75 -17 207 -3 126 -11 231 -21 283 -89 443 -389 813 -805 993 -214 92 -470 127 -706 98z m435 -178 c455 -104 807 -456 911 -911 21 -92 38 -370 23 -370 -5 0 -18 7 -28 15 -25 19 -67 19 -92 0 -10 -8 -22 -15 -26 -15 -5 0 -8 42 -8 93 0 496 -315 902 -798 1029 -121 31 -368 32 -484 0 -395 -108 -667 -380 -769 -770 -13 -49 -22 -126 -26 -214 -3 -76 -9 -138 -12 -138 -3 0 -15 7 -25 15 -25 19 -67 19 -92 0 -10 -8 -23 -15 -28 -15 -15 0 2 278 23 370 108 472 497 845 961 920 41 6 82 13 90 15 42 11 302 -6 380 -24z m-105 -306 c358 -63 647 -352 710 -710 9 -52 15 -148 15 -235 0 -126 -2 -149 -16 -154 -20 -8 -1708 -8 -1728 0 -14 5 -16 28 -16 154 0 246 39 400 142 557 195 299 541 449 893 388z m-1193 -1176 l78 -52 0 -258 0 -259 -160 0 -160 0 0 259 0 258 78 52 c42 28 79 51 81 51 3 0 40 -23 83 -51z m2240 0 l78 -52 0 -258 0 -259 -160 0 -160 0 0 259 0 258 78 52 c42 28 79 51 81 51 3 0 40 -23 83 -51z m-2642 -384 l0 -296 25 -24 24 -25 271 0 271 0 24 25 25 24 0 296 0 295 800 0 800 0 0 -295 0 -296 25 -24 24 -25 271 0 271 0 24 25 25 24 0 296 0 295 156 0 157 0 -6 -42 c-3 -24 -29 -268 -58 -543 -28 -275 -53 -502 -55 -503 -1 -2 -39 26 -84 62 l-82 66 -268 0 -268 0 -213 -171 c-118 -93 -220 -178 -226 -186 -10 -13 -13 -187 -13 -790 l0 -773 -211 0 c-116 0 -209 3 -207 8 55 107 62 130 66 212 5 111 -104 1513 -122 1574 -33 108 -130 216 -234 258 l-57 23 -692 3 c-647 2 -693 4 -693 20 0 9 -18 186 -40 392 -22 206 -40 378 -40 383 0 4 70 7 155 7 l155 0 0 -295z m-888 -412 c99 -39 168 -72 168 -80 0 -10 -55 -13 -280 -13 l-280 0 0 80 0 80 112 0 113 0 167 -67z m648 -388 c0 -131 1 -137 25 -160 l24 -25 271 0 271 0 24 25 c24 23 25 29 25 160 l0 135 353 0 c378 -1 394 -3 461 -54 19 -14 46 -49 60 -78 25 -51 28 -77 66 -571 22 -285 40 -531 40 -548 l0 -29 -1300 0 -1300 0 0 29 c0 17 18 263 40 548 38 494 41 520 66 571 14 29 41 64 60 78 67 51 83 53 462 54 l352 0 0 -135z m480 55 l0 -80 -160 0 -160 0 0 80 0 80 160 0 160 0 0 -80z m2786 -217 l173 -138 1 -742 0 -743 -560 0 -560 0 1 743 0 742 172 137 172 137 214 1 213 0 174 -137z m-1623 -1225 c4 -46 7 -112 7 -148 0 -114 -58 -200 -157 -236 -56 -20 -2290 -20 -2346 0 -57 21 -105 62 -132 116 -27 54 -31 108 -18 268 l6 82 1317 0 1317 0 6 -82z"/>
<path d="M2745 3015 c-25 -24 -25 -26 -25 -215 0 -189 0 -191 25 -215 l24 -25 271 0 271 0 24 25 c25 24 25 26 25 215 0 189 0 191 -25 215 l-24 25 -271 0 -271 0 -24 -25z m455 -215 l0 -80 -160 0 -160 0 0 80 0 80 160 0 160 0 0 -80z"/>
<path d="M4185 1895 c-50 -49 -15 -135 55 -135 41 0 80 39 80 80 0 41 -39 80 -80 80 -19 0 -40 -9 -55 -25z"/>
<path d="M4185 1575 c-22 -21 -25 -33 -25 -90 0 -52 -3 -65 -16 -65 -27 0 -119 -101 -132 -146 -28 -94 -8 -169 63 -239 51 -52 102 -75 164 -75 71 0 106 -85 56 -135 -49 -50 -135 -15 -135 55 0 70 -86 105 -135 55 -28 -27 -32 -65 -13 -129 13 -45 105 -146 132 -146 13 0 16 -13 16 -65 0 -57 3 -69 25 -90 32 -33 78 -33 110 0 22 21 25 33 25 90 0 52 3 65 16 65 27 0 119 101 132 146 28 94 8 169 -63 239 -51 52 -102 75 -164 75 -42 0 -81 38 -81 80 0 41 39 80 80 80 41 0 80 -39 80 -80 0 -70 86 -105 135 -55 28 27 32 65 13 129 -13 45 -105 146 -132 146 -13 0 -16 13 -16 65 0 57 -3 69 -25 90 -15 16 -36 25 -55 25 -19 0 -40 -9 -55 -25z"/>
</g>
</svg>