<svg xmlns="http://www.w3.org/2000/svg" version="1.0" width="512.000000pt" height="512.000000pt" viewBox="0 0 512.000000 512.000000" preserveAspectRatio="xMidYMid meet">

<g transform="translate(0.000000,512.000000) scale(0.100000,-0.100000)" fill="#000000" stroke="none">
<path d="M1865 5015 c-21 -21 -25 -33 -25 -88 l0 -64 -41 -7 c-69 -11 -194 -64 -276 -118 -203 -132 -347 -349 -388 -583 -8 -48 -15 -89 -15 -90 0 -1 -14 -8 -30 -15 -68 -28 -130 -129 -130 -210 0 -81 62 -182 130 -210 l30 -12 0 -89 0 -89 -56 0 c-31 0 -75 -5 -98 -12 -55 -16 -138 -99 -154 -154 -28 -94 -8 -169 63 -239 58 -58 102 -75 196 -75 l64 0 18 -77 c55 -243 253 -496 475 -607 51 -26 52 -27 52 -70 l0 -44 -287 -5 c-215 -4 -305 -9 -356 -21 -243 -57 -435 -162 -603 -330 -138 -139 -235 -295 -293 -474 -52 -162 -56 -199 -56 -588 l0 -360 37 -76 c45 -91 103 -147 196 -191 l67 -32 1695 0 1695 0 67 32 c92 43 151 100 195 190 34 69 37 82 41 184 4 101 6 110 26 114 20 5 491 97 761 149 186 36 175 16 175 317 l0 240 -25 24 -24 25 -491 0 c-458 0 -491 1 -497 18 -3 9 -21 50 -39 91 -130 286 -408 532 -714 630 -148 48 -194 53 -487 58 l-283 5 0 44 c0 43 1 44 53 70 221 111 419 364 474 607 l18 77 64 0 c94 0 138 17 196 75 98 97 101 222 8 325 -51 57 -108 80 -195 80 l-58 0 0 89 0 89 30 12 c68 28 130 129 130 210 0 81 -62 182 -130 210 -16 7 -30 14 -30 15 0 1 -7 41 -15 88 -31 176 -115 338 -245 468 -116 117 -265 202 -402 231 l-58 12 0 63 c0 54 -4 68 -25 88 -24 25 -26 25 -215 25 -189 0 -191 0 -215 -25z m295 -375 l0 -240 -80 0 -80 0 0 240 0 240 80 0 80 0 0 -240z m-320 -145 c0 -274 -18 -255 240 -255 258 0 240 -19 240 255 0 113 4 205 8 205 23 0 132 -44 191 -77 86 -48 216 -178 264 -264 44 -78 74 -162 83 -230 l7 -49 -793 0 -793 0 7 49 c9 68 39 152 83 230 44 80 174 212 257 261 51 29 173 79 199 80 4 0 7 -92 7 -205z m1175 -600 c16 -15 25 -36 25 -55 0 -19 -9 -40 -25 -55 l-24 -25 -911 0 -911 0 -24 25 c-16 15 -25 36 -25 55 0 19 9 40 25 55 l24 25 911 0 911 0 24 -25z m-137 -602 c-5 -324 -6 -338 -58 -475 -12 -32 -43 -91 -70 -131 -238 -366 -718 -474 -1087 -247 -180 111 -296 268 -361 490 -12 44 -16 119 -20 363 l-4 307 802 0 802 0 -4 -307z m-1758 -93 l0 -80 -55 0 c-67 0 -105 29 -105 80 0 51 38 80 105 80 l55 0 0 -80z m2055 55 c16 -15 25 -36 25 -55 0 -51 -38 -80 -105 -80 l-55 0 0 80 0 80 55 0 c46 0 60 -4 80 -25z m-1250 -1080 c44 -8 114 -14 155 -14 41 0 111 6 155 14 44 8 81 15 83 15 8 0 0 -150 -10 -184 -26 -86 -136 -166 -228 -166 -92 0 -202 80 -228 166 -10 34 -18 184 -9 184 1 0 38 -7 82 -15z m-235 -189 c0 -7 16 -45 35 -83 43 -86 103 -144 193 -186 61 -29 76 -32 162 -32 86 0 101 3 162 32 90 42 150 100 193 186 19 38 35 76 35 83 0 12 44 14 239 14 131 0 259 -3 285 -6 l46 -7 0 -313 0 -314 -816 0 c-612 0 -827 -3 -858 -12 -55 -16 -138 -99 -154 -154 -7 -24 -12 -100 -12 -178 l0 -136 -80 0 -80 0 0 545 0 545 25 6 c66 17 150 22 378 23 203 1 247 -1 247 -13z m1663 -102 c186 -95 360 -270 456 -461 l31 -63 -320 0 -320 0 0 295 0 295 50 -20 c28 -11 74 -32 103 -46z m-2473 -484 l0 -520 -80 0 -80 0 0 -80 0 -80 456 0 c329 0 468 -3 498 -12 86 -26 166 -136 166 -228 0 -92 -80 -202 -166 -228 -59 -17 -1209 -17 -1268 0 -55 16 -138 99 -154 154 -15 53 -17 595 -1 697 49 333 259 629 552 779 39 21 73 38 75 38 1 0 2 -234 2 -520z m1280 -680 l0 -480 -118 0 -118 0 35 72 c34 67 36 78 36 168 0 91 -2 100 -37 172 -45 91 -103 147 -196 191 -66 31 -71 32 -234 35 l-168 4 0 134 c0 130 1 136 25 159 l24 25 376 0 375 0 0 -480z m2720 341 l0 -140 -52 -10 c-158 -32 -2494 -491 -2500 -491 -5 0 -8 176 -8 390 l0 390 1280 0 1280 0 0 -139z m-960 -552 c0 -34 -5 -80 -12 -103 -16 -55 -99 -138 -154 -154 -28 -8 -126 -12 -298 -12 l-256 0 0 94 0 93 353 70 c193 39 355 71 360 72 4 0 7 -27 7 -60z m-880 -194 l0 -75 -360 0 c-233 0 -360 4 -360 10 0 6 10 10 23 11 12 0 162 29 332 63 171 35 322 64 338 65 l27 1 0 -75z"/>
</g>
</svg>