<svg xmlns="http://www.w3.org/2000/svg" version="1.0" width="512.000000pt" height="512.000000pt" viewBox="0 0 512.000000 512.000000" preserveAspectRatio="xMidYMid meet">

<g transform="translate(0.000000,512.000000) scale(0.100000,-0.100000)" fill="#000000" stroke="none">
<path d="M3712 4624 c-444 -318 -584 -422 -589 -442 -15 -62 -13 -63 427 -304 228 -124 416 -230 418 -236 1 -5 -81 -193 -183 -417 -102 -224 -185 -419 -185 -432 0 -34 42 -73 79 -73 24 0 146 95 678 526 356 289 656 535 666 546 21 25 22 66 3 94 -11 15 -135 64 -423 169 -224 81 -411 151 -416 154 -4 4 42 172 103 374 60 201 110 376 110 387 0 30 -44 70 -77 70 -22 0 -173 -103 -611 -416z m373 -166 c-47 -156 -85 -293 -85 -304 0 -47 24 -59 410 -199 209 -76 379 -142 378 -146 -4 -11 -879 -722 -883 -717 -2 2 55 131 126 287 71 156 129 294 129 306 0 13 -8 32 -17 43 -10 11 -190 114 -401 228 -210 115 -381 212 -380 216 4 10 801 578 806 574 1 -2 -36 -132 -83 -288z"/>
<path d="M1785 4295 c-27 -26 -30 -51 -16 -103 11 -37 16 -34 -72 -50 -32 -6 -91 -27 -130 -46 l-72 -35 -38 37 -37 36 -58 -57 -57 -57 32 -32 32 -31 -45 -62 c-54 -77 -89 -153 -105 -234 -10 -48 -17 -61 -31 -61 -11 0 -30 -11 -43 -25 -24 -23 -25 -31 -25 -134 0 -110 0 -111 -27 -125 -65 -34 -121 -125 -130 -211 -17 -162 115 -305 283 -305 l41 0 7 -51 c15 -111 86 -254 177 -353 l49 -54 0 -139 0 -140 -327 -72 c-181 -39 -355 -81 -388 -93 -172 -60 -308 -203 -359 -378 -50 -170 -366 -1352 -366 -1370 0 -11 11 -32 25 -45 l24 -25 1831 0 1831 0 24 25 c14 13 25 33 25 44 0 41 -280 1361 -300 1415 -50 132 -150 240 -285 307 -68 33 -131 50 -427 116 l-348 77 0 139 0 139 50 55 c90 98 161 242 177 358 l6 45 42 0 c123 0 238 83 271 195 35 124 -18 269 -118 321 -28 14 -28 15 -28 125 0 103 -1 111 -25 134 -13 14 -32 25 -42 25 -15 0 -21 13 -30 59 -14 75 -70 193 -119 249 l-37 43 32 33 c17 17 31 36 31 42 0 12 -92 104 -105 104 -5 0 -26 -17 -47 -37 l-38 -37 -44 22 c-58 29 -141 58 -195 67 -33 5 -41 10 -36 23 3 9 9 35 12 58 5 36 2 46 -20 68 l-26 26 -191 0 c-189 0 -191 0 -215 -25z m253 -215 c-16 -62 -24 -80 -38 -80 -14 0 -22 18 -38 80 l-20 80 58 0 58 0 -20 -80z m-207 -137 c8 -33 23 -68 36 -80 20 -21 31 -23 133 -23 102 0 113 2 133 23 13 12 28 47 35 78 l13 56 52 -9 c29 -5 74 -19 100 -30 44 -19 46 -22 32 -38 -8 -9 -15 -21 -15 -25 0 -13 92 -105 104 -105 5 0 22 11 36 25 l26 25 34 -46 c35 -50 79 -147 80 -176 0 -17 -37 -18 -631 -18 l-631 0 6 32 c9 44 52 135 83 176 l25 34 27 -26 c15 -14 30 -26 34 -26 12 0 107 93 107 106 0 6 -7 17 -15 24 -8 7 -15 16 -15 20 0 15 125 57 177 59 18 1 23 -7 34 -56z m889 -543 l0 -40 -720 0 -720 0 0 40 0 40 720 0 720 0 0 -40z m-1440 -321 l0 -122 -46 6 c-69 7 -109 51 -109 116 0 73 47 119 123 120 l32 1 0 -121z m1280 -62 c0 -219 -9 -276 -60 -383 -98 -204 -319 -330 -547 -310 -194 16 -369 136 -453 309 -51 108 -60 165 -60 384 l0 183 560 0 560 0 0 -183z m284 144 c26 -27 31 -39 31 -81 0 -66 -40 -110 -109 -117 l-46 -6 0 123 0 123 46 -6 c34 -3 55 -13 78 -36z m-1106 -950 c69 -27 190 -51 261 -51 75 0 190 22 259 49 29 12 55 21 58 21 3 0 4 -66 2 -147 -3 -132 -6 -153 -28 -198 -31 -64 -92 -124 -155 -156 -41 -20 -65 -24 -135 -24 -70 0 -94 4 -135 24 -63 32 -124 93 -156 156 -21 45 -24 65 -27 198 -2 81 -1 147 2 147 3 0 27 -9 54 -19z m-198 -325 c0 -36 74 -156 128 -208 192 -184 472 -184 664 0 54 52 128 172 128 208 0 17 -2 18 98 -3 l82 -17 0 -373 0 -373 -640 0 -640 0 0 373 0 373 73 16 c93 20 107 21 107 4z m-340 -466 l0 -411 25 -24 24 -25 751 0 751 0 24 25 25 24 0 411 0 410 25 -6 c13 -3 48 -11 77 -18 l53 -11 3 -778 2 -777 -80 0 -80 0 0 174 c0 151 -2 176 -17 194 -10 12 -112 58 -233 106 l-215 86 -335 0 -335 0 -215 -86 c-121 -48 -223 -94 -232 -106 -16 -18 -18 -43 -18 -194 l0 -174 -80 0 -80 0 2 777 3 778 70 16 c39 9 73 17 78 18 4 0 7 -184 7 -409z m-320 -425 l0 -755 -305 0 c-203 0 -305 3 -305 10 0 6 72 276 160 600 88 325 160 596 160 604 0 30 72 154 112 193 42 41 141 102 166 103 9 0 12 -158 12 -755z m2312 729 c70 -36 140 -103 177 -173 27 -51 49 -146 161 -681 72 -342 130 -624 130 -626 0 -2 -121 -4 -270 -4 l-270 0 0 755 c0 513 3 755 10 755 6 0 34 -12 62 -26z m-720 -1151 l168 -67 0 -133 0 -133 -640 0 -640 0 0 133 0 133 163 66 162 66 310 1 310 1 167 -67z"/>
<path d="M4160 2360 c0 -174 -2 -200 -15 -200 -9 0 -27 -11 -40 -25 -25 -24 -25 -25 -25 -227 0 -221 8 -276 56 -370 55 -109 200 -223 310 -244 33 -6 34 -8 34 -53 l0 -46 -52 -13 c-187 -43 -338 -186 -404 -382 -26 -76 -26 -244 0 -320 45 -135 137 -255 241 -316 68 -39 162 -72 234 -80 l61 -7 0 81 0 80 -55 7 c-75 9 -183 65 -235 121 -23 25 -56 75 -73 112 -29 61 -32 76 -32 162 0 86 3 101 32 162 64 135 185 222 328 235 104 9 115 24 115 151 l0 100 34 6 c116 22 261 140 316 258 42 90 50 146 50 365 0 193 0 194 -25 218 -13 14 -31 25 -40 25 -13 0 -15 26 -15 200 l0 200 -80 0 -80 0 0 -200 0 -200 -80 0 -80 0 0 200 0 200 -80 0 -80 0 0 -200 0 -200 -80 0 -80 0 0 200 0 200 -80 0 -80 0 0 -200z m718 -522 c-4 -153 -5 -166 -30 -214 -40 -75 -70 -107 -140 -145 -58 -31 -70 -34 -148 -34 -78 0 -90 3 -148 34 -69 37 -109 80 -144 151 -19 39 -23 65 -26 208 l-4 162 322 0 322 0 -4 -162z"/>
</g>
</svg>