<svg xmlns="http://www.w3.org/2000/svg" version="1.0" width="128.000000pt" height="128.000000pt" viewBox="0 0 128.000000 128.000000" preserveAspectRatio="xMidYMid meet">

<g transform="translate(0.000000,128.000000) scale(0.100000,-0.100000)" fill="#000000" stroke="none">
<path d="M165 1075 c-25 -24 -25 -25 -25 -220 l0 -195 -35 0 c-25 0 -44 -8 -60 -25 -25 -24 -25 -26 -25 -215 0 -189 0 -191 25 -215 23 -24 29 -25 155 -25 126 0 132 1 155 25 19 18 25 35 25 70 l0 45 85 0 c77 0 85 -2 85 -19 0 -16 -8 -20 -42 -23 l-43 -3 0 -45 0 -45 373 -3 373 -2 24 24 25 25 0 291 0 291 -25 24 c-16 17 -35 25 -60 25 l-35 0 0 95 c0 88 -2 98 -25 120 l-24 25 -451 0 -451 0 -24 -25z m923 -27 c8 -8 12 -45 12 -100 l0 -88 -155 0 c-152 0 -156 -1 -180 -25 -25 -24 -25 -27 -25 -200 l0 -175 -180 0 -180 0 0 75 c0 67 -3 79 -25 100 -21 22 -33 25 -100 25 l-75 0 0 188 c0 133 4 192 12 200 17 17 879 17 896 0z m120 -240 c17 -17 17 -559 0 -576 -17 -17 -399 -17 -416 0 -17 17 -17 559 0 576 17 17 399 17 416 0z m-1071 -218 c11 -28 15 -30 63 -30 48 0 52 2 63 30 12 32 43 40 65 18 17 -17 17 -359 0 -376 -17 -17 -239 -17 -256 0 -17 17 -17 359 0 376 22 22 53 14 65 -18z m93 20 c0 -5 -13 -10 -30 -10 -16 0 -30 5 -30 10 0 6 14 10 30 10 17 0 30 -4 30 -10z m510 -220 l0 -30 -180 0 -180 0 0 30 0 30 180 0 180 0 0 -30z m-50 -90 c0 -17 -7 -20 -50 -20 -43 0 -50 3 -50 20 0 17 7 20 50 20 43 0 50 -3 50 -20z m47 -12 c-3 -7 -5 -2 -5 12 0 14 2 19 5 13 2 -7 2 -19 0 -25z m8 -58 c4 -6 -38 -10 -119 -10 -77 0 -126 4 -126 10 0 6 46 10 119 10 69 0 122 -4 126 -10z"/>
<path d="M805 788 c-3 -8 -4 -119 -3 -248 l3 -235 195 0 195 0 0 245 0 245 -193 3 c-150 2 -194 0 -197 -10z m355 -238 l0 -210 -160 0 -160 0 0 210 0 210 160 0 160 0 0 -210z"/>
<path d="M964 269 c-10 -17 13 -36 27 -22 12 12 4 33 -11 33 -5 0 -12 -5 -16 -11z"/>
<path d="M85 270 c-12 -19 10 -32 51 -28 27 2 39 8 39 18 0 19 -79 27 -90 10z"/>
<path d="M205 270 c-4 -7 -3 -16 3 -22 14 -14 47 -6 47 12 0 18 -40 26 -50 10z"/>
</g>
</svg>