<svg xmlns="http://www.w3.org/2000/svg" version="1.0" width="512.000000pt" height="512.000000pt" viewBox="0 0 512.000000 512.000000" preserveAspectRatio="xMidYMid meet">

<g transform="translate(0.000000,512.000000) scale(0.100000,-0.100000)" fill="#000000" stroke="none">
<path d="M949 4944 c-109 -19 -233 -67 -330 -126 -111 -68 -249 -206 -317 -317 -234 -383 -170 -883 152 -1189 42 -39 100 -88 131 -108 l55 -37 0 -607 0 -607 -55 -37 c-189 -125 -337 -337 -396 -565 -49 -189 -25 -497 43 -561 50 -46 58 -40 359 253 154 149 292 278 306 285 16 9 38 11 62 7 30 -5 65 -36 203 -173 137 -138 168 -173 173 -203 4 -24 2 -46 -7 -62 -7 -14 -136 -152 -285 -306 -227 -233 -273 -285 -273 -308 1 -54 28 -72 145 -99 123 -29 310 -24 440 10 122 32 255 97 353 172 41 30 75 54 76 52 2 -2 16 -27 31 -56 37 -69 101 -126 183 -165 65 -31 71 -32 232 -35 l165 -4 433 91 c239 50 438 91 443 91 5 0 9 -40 9 -90 l0 -90 80 0 80 0 0 90 c0 50 4 90 9 90 5 0 202 -41 438 -91 l428 -90 171 3 170 3 76 37 c91 45 147 103 191 196 l32 67 3 695 c2 489 -1 715 -9 763 -27 163 -150 327 -299 399 -94 45 -119 51 -360 83 -182 25 -203 30 -322 78 l-128 51 0 90 0 89 68 67 c130 126 213 279 239 445 l8 49 55 11 c68 14 153 59 186 98 14 17 37 53 52 81 22 43 26 64 26 136 1 78 -2 90 -33 148 -37 68 -81 110 -146 141 l-40 19 -2 63 c-10 366 -21 548 -37 594 -55 154 -154 270 -289 334 -45 22 -109 44 -141 50 -79 15 -773 15 -852 0 -32 -6 -96 -28 -141 -50 -135 -64 -234 -180 -289 -334 -16 -46 -27 -228 -37 -594 l-2 -63 -40 -19 c-65 -31 -109 -73 -146 -141 -31 -58 -34 -70 -33 -148 0 -72 4 -93 26 -136 15 -28 38 -64 52 -81 33 -39 119 -85 186 -98 l55 -12 8 -49 c26 -165 109 -318 239 -444 l68 -67 0 -92 0 -92 -126 -59 c-115 -54 -143 -63 -342 -105 -119 -25 -244 -55 -277 -66 -124 -44 -250 -152 -307 -263 -28 -55 -58 -144 -58 -173 0 -12 -3 -23 -6 -23 -3 0 -41 26 -85 57 l-79 58 0 606 0 606 55 37 c189 125 337 337 396 565 49 189 25 497 -43 561 -50 46 -58 40 -359 -252 -154 -150 -292 -279 -306 -286 -16 -9 -38 -11 -62 -7 -30 5 -65 36 -203 173 -137 138 -168 173 -173 203 -4 24 -2 46 7 62 7 14 136 152 286 306 286 294 294 306 258 353 -47 63 -321 96 -507 62z m266 -150 c13 -5 -34 -58 -203 -228 -138 -139 -228 -238 -243 -266 -32 -62 -32 -167 -1 -230 15 -31 84 -107 209 -232 205 -202 220 -212 328 -212 106 0 135 20 381 265 247 246 234 240 234 107 0 -267 -143 -523 -377 -674 -45 -30 -87 -62 -93 -73 -14 -27 -14 -1355 1 -1382 5 -11 43 -41 82 -66 40 -25 107 -80 150 -121 l77 -75 0 -485 0 -484 -67 -70 c-120 -123 -264 -202 -430 -234 -77 -14 -209 -19 -238 -8 -13 5 34 58 204 228 245 246 265 275 265 381 0 108 -10 123 -212 328 -125 125 -201 194 -232 209 -63 31 -168 31 -230 -1 -28 -15 -128 -105 -267 -244 l-222 -220 -7 38 c-4 21 -4 77 -1 124 18 262 149 482 374 627 45 30 87 62 93 73 14 27 14 1355 0 1381 -6 11 -48 44 -93 74 -197 130 -323 316 -363 536 -77 425 207 837 636 925 69 14 217 19 245 9z m2637 -36 c91 -45 147 -103 191 -196 31 -66 32 -71 35 -234 l4 -168 -161 0 -161 0 0 135 c0 131 -1 137 -25 160 l-24 25 -351 0 -351 0 -24 -25 c-24 -23 -25 -29 -25 -160 l0 -135 -161 0 -161 0 4 168 c3 163 4 168 35 234 17 37 50 87 72 111 44 48 135 101 197 116 22 5 216 9 435 8 l395 -2 76 -37z m-252 -518 l0 -80 -240 0 -240 0 0 80 0 80 240 0 240 0 0 -80z m500 -257 c-1 -34 -38 -100 -69 -123 -49 -34 -92 -35 -271 -4 -149 26 -188 28 -400 28 -212 0 -251 -2 -400 -28 -179 -31 -222 -30 -271 4 -31 23 -68 89 -69 123 0 16 42 17 740 17 698 0 740 -1 740 -17z m-1540 -383 c0 -177 1 -173 -64 -146 -40 17 -83 71 -92 114 -14 71 26 150 91 178 66 29 65 31 65 -146z m1695 125 c38 -28 65 -81 65 -125 0 -69 -60 -143 -128 -156 l-32 -6 0 162 0 163 32 -7 c17 -3 46 -17 63 -31z m-702 -2 c63 -6 67 -7 60 -27 -5 -12 -8 -41 -8 -65 1 -37 6 -48 39 -78 35 -32 42 -35 83 -30 66 7 107 51 108 112 0 41 2 45 20 41 11 -3 48 -6 83 -6 l62 0 0 -187 c0 -225 -12 -294 -72 -413 -105 -210 -332 -350 -568 -350 -236 0 -466 142 -569 350 -59 120 -71 190 -71 413 l0 187 63 0 c34 0 71 3 82 6 18 4 20 0 20 -41 0 -37 6 -51 33 -78 28 -27 39 -32 82 -32 43 0 54 5 82 32 26 27 33 41 33 75 0 24 -4 53 -8 65 -7 20 -5 22 40 26 87 6 337 7 406 0z m-335 -1149 c133 -25 287 -13 410 34 l52 20 0 -66 c0 -56 -13 -109 -77 -314 l-77 -248 -166 0 -166 0 -77 248 c-64 205 -77 258 -77 314 l0 66 53 -20 c28 -11 85 -26 125 -34z m687 -239 c39 -16 71 -29 72 -29 4 -3 -45 -558 -50 -563 -4 -4 -235 120 -265 143 -2 1 118 397 144 473 2 7 10 11 17 8 6 -3 44 -17 82 -32z m-917 -211 c40 -130 72 -237 70 -239 -26 -20 -261 -146 -265 -142 -4 5 -53 539 -49 543 9 9 145 73 156 73 11 1 35 -63 88 -235z m1361 111 c110 -17 181 -33 217 -49 106 -49 197 -161 223 -277 6 -24 11 -158 11 -296 l0 -253 -165 0 c-122 0 -175 -4 -200 -14 l-35 -15 0 135 0 134 -80 0 -80 0 0 -120 0 -120 -320 0 -320 0 0 -80 0 -80 241 -2 241 -3 -89 -38 c-85 -36 -96 -38 -283 -52 -107 -8 -212 -17 -232 -19 l-38 -4 0 91 c0 90 2 98 81 322 45 127 83 232 85 234 2 2 86 -45 188 -103 102 -58 195 -106 206 -106 28 0 57 16 69 38 5 9 22 171 37 360 l28 342 26 0 c14 0 99 -11 189 -25z m-1759 -17 c0 -12 12 -162 26 -333 18 -214 30 -317 40 -332 11 -18 24 -23 59 -23 37 0 70 15 221 101 97 55 177 99 178 97 2 -2 40 -106 85 -233 79 -225 81 -232 81 -322 l0 -92 -32 5 c-18 2 -122 11 -230 19 l-197 14 -170 73 -171 72 0 168 0 168 -80 0 -80 0 0 -135 0 -136 -30 16 c-23 12 -66 15 -200 15 l-172 0 4 253 3 253 38 76 c42 85 106 151 185 189 34 17 339 92 435 108 4 0 7 -9 7 -21z m880 -385 c0 -14 -105 -303 -110 -303 -5 0 -110 289 -110 303 0 4 50 7 110 7 61 0 110 -3 110 -7z m-963 -753 l282 -120 1006 -77 1005 -77 0 -139 c0 -173 -9 -207 -75 -272 -65 -65 -99 -75 -266 -75 -124 0 -153 4 -394 56 -143 30 -280 59 -305 64 -25 5 -238 50 -475 101 l-430 93 -210 4 -210 3 -81 80 -82 79 -176 0 -176 0 0 200 0 200 152 0 152 0 283 -120z m2293 5 c0 -112 -1 -115 -22 -115 -35 0 -682 51 -685 54 -1 1 86 41 195 88 l197 86 158 1 157 1 0 -115z m-2514 -525 l82 -80 218 -1 c174 0 236 -4 299 -18 62 -14 74 -20 55 -25 -14 -3 -142 -31 -286 -61 -241 -51 -271 -55 -394 -55 -166 0 -200 10 -265 75 -57 56 -75 102 -75 189 l0 56 142 0 142 0 82 -80z"/>
<path d="M1040 2560 l0 -720 80 0 80 0 0 720 0 720 -80 0 -80 0 0 -720z"/>
<path d="M3500 3303 c-30 -8 -128 -17 -217 -20 l-163 -6 0 -80 0 -80 168 6 c155 5 304 26 325 46 11 11 -32 151 -46 150 -7 -1 -37 -8 -67 -16z"/>
<path d="M2960 1360 l0 -80 80 0 80 0 0 80 0 80 -80 0 -80 0 0 -80z"/>
</g>
</svg>