<svg xmlns="http://www.w3.org/2000/svg" version="1.0" width="512.000000pt" height="512.000000pt" viewBox="0 0 512.000000 512.000000" preserveAspectRatio="xMidYMid meet">

<g transform="translate(0.000000,512.000000) scale(0.100000,-0.100000)" fill="#000000" stroke="none">
<path d="M2520 4060 c-687 -53 -1174 -419 -1375 -1035 -74 -225 -90 -328 -89 -560 1 -183 3 -208 27 -298 63 -236 183 -437 387 -651 131 -137 261 -248 327 -281 86 -42 337 -121 443 -140 273 -48 662 -22 916 60 622 203 1001 801 945 1490 -26 326 -117 605 -273 840 -67 102 -241 277 -338 342 -207 138 -417 209 -690 233 -125 11 -138 11 -280 0z m451 -203 c117 -31 219 -72 307 -126 97 -59 292 -217 346 -281 129 -151 247 -434 291 -699 26 -152 17 -399 -19 -536 -121 -464 -425 -786 -851 -901 -118 -32 -411 -68 -555 -69 -98 0 -122 3 -165 23 -27 12 -68 24 -90 26 -22 2 -47 6 -55 10 -8 3 -53 12 -100 21 -130 22 -221 72 -360 199 -467 423 -592 862 -408 1435 110 343 331 611 628 761 236 119 475 171 760 166 148 -3 190 -7 271 -29z"/>
<path d="M2538 3409 c-141 -37 -172 -187 -56 -272 38 -28 125 -34 167 -12 38 19 71 82 71 135 0 47 -33 115 -62 131 -33 18 -89 27 -120 18z"/>
<path d="M2223 2816 c-30 -22 -39 -70 -18 -102 22 -34 53 -44 143 -45 89 0 139 -13 146 -37 2 -9 8 -197 11 -417 6 -334 4 -403 -7 -418 -13 -17 -33 -19 -197 -22 -203 -3 -214 -7 -227 -72 -5 -25 -1 -37 18 -56 44 -44 99 -48 483 -37 193 5 374 10 403 10 43 0 58 5 77 25 34 33 34 83 -1 116 -25 23 -30 24 -184 24 -88 0 -162 4 -166 7 -15 16 -23 101 -24 248 0 85 -5 272 -10 414 -11 289 -17 313 -81 351 -47 27 -331 36 -366 11z"/>
</g>
</svg>