<svg xmlns="http://www.w3.org/2000/svg" version="1.0" width="512.000000pt" height="512.000000pt" viewBox="0 0 512.000000 512.000000" preserveAspectRatio="xMidYMid meet">

<g transform="translate(0.000000,512.000000) scale(0.100000,-0.100000)" fill="#000000" stroke="none">
<path d="M2396 5109 c-432 -60 -808 -327 -968 -690 -117 -266 -127 -567 -27 -872 47 -146 183 -413 249 -492 9 -11 27 -51 40 -90 42 -130 111 -244 205 -340 l54 -56 -19 -75 c-42 -164 -101 -210 -365 -284 -176 -49 -284 -89 -369 -137 -354 -200 -543 -609 -616 -1333 -5 -57 -15 -220 -20 -361 -11 -292 -8 -318 49 -356 l34 -23 1917 0 1917 0 34 23 c56 38 60 63 49 356 -29 777 -159 1245 -424 1529 -138 147 -280 220 -616 313 -226 62 -289 115 -330 273 l-19 75 54 56 c94 96 163 210 205 340 13 39 31 79 40 90 34 40 110 173 164 285 154 323 192 623 115 918 -109 417 -472 738 -944 837 -96 20 -313 28 -409 14z m382 -253 c347 -75 631 -317 727 -619 55 -171 55 -360 3 -552 l-22 -80 -13 125 c-22 222 -62 348 -130 412 -85 81 -222 95 -378 39 -153 -56 -231 -72 -370 -78 -158 -6 -275 11 -407 62 -153 59 -266 67 -350 24 -88 -45 -154 -194 -179 -404 -6 -49 -13 -110 -16 -135 l-6 -45 -19 60 c-85 269 -45 576 102 790 140 204 397 364 650 405 41 6 82 13 90 15 34 9 250 -5 318 -19z m407 -900 c38 -57 49 -168 49 -501 l1 -320 -27 -80 c-97 -285 -339 -455 -648 -455 -116 0 -214 22 -315 70 -164 79 -271 203 -333 385 l-27 80 0 305 c0 310 8 407 42 493 19 47 26 47 201 2 209 -54 367 -71 527 -57 139 13 309 48 390 80 72 29 121 28 140 -2z m-942 -1547 c99 -33 200 -49 317 -49 117 0 218 16 317 49 34 12 66 21 71 21 5 0 15 -19 22 -42 15 -51 54 -131 83 -170 l21 -28 -51 -53 c-27 -28 -141 -149 -253 -267 -112 -118 -206 -215 -210 -215 -4 0 -98 97 -210 215 -112 118 -226 239 -253 267 l-51 53 21 28 c29 39 68 119 83 170 7 23 17 42 22 42 5 0 37 -9 71 -21z m-74 -684 c166 -176 314 -328 329 -337 15 -10 43 -18 62 -18 19 0 47 8 62 18 19 12 470 483 628 656 8 8 53 -5 387 -110 228 -73 361 -188 471 -409 126 -255 212 -726 212 -1167 l0 -118 -220 0 -220 0 0 300 c0 325 -3 350 -53 383 -33 21 -105 22 -135 1 -50 -35 -52 -51 -52 -379 l0 -305 -1080 0 -1080 0 0 305 c0 328 -2 344 -52 379 -30 21 -102 20 -135 -1 -50 -33 -53 -58 -53 -383 l0 -300 -220 0 -220 0 0 118 c0 65 5 179 10 253 52 666 195 1048 460 1224 88 58 154 85 344 139 83 24 167 51 186 59 19 9 42 15 51 14 9 -1 152 -146 318 -322z"/>
</g>
</svg>