<svg xmlns="http://www.w3.org/2000/svg" version="1.0" width="100.000000pt" height="100.000000pt" viewBox="0 0 500.000000 500.000000" preserveAspectRatio="xMidYMid meet">

<g transform="translate(0.000000,500.000000) scale(0.100000,-0.100000)" fill="#000000" stroke="none">
<path d="M748 3643 c-32 -8 -36 -78 -6 -87 7 -2 85 -11 173 -21 88 -9 172 -19 186 -21 25 -6 27 -10 58 -187 17 -100 47 -270 66 -377 63 -348 176 -981 212 -1185 8 -49 20 -96 25 -102 8 -9 52 -13 159 -13 139 0 149 -1 149 -19 0 -12 -14 -24 -44 -35 -119 -46 -181 -174 -144 -300 18 -59 100 -141 158 -156 108 -29 218 13 274 104 24 38 31 63 34 116 6 106 -40 181 -145 234 -21 10 -33 24 -33 36 0 20 9 20 650 20 631 0 650 -1 650 -19 0 -11 -9 -21 -22 -25 -13 -3 -44 -21 -69 -40 -90 -67 -123 -187 -78 -286 68 -151 242 -195 374 -95 83 64 113 210 61 299 -30 52 -87 101 -133 117 -22 7 -33 17 -33 30 0 18 8 19 135 19 135 0 135 0 147 25 8 19 8 31 0 50 l-12 25 -1004 0 -1005 0 -11 58 c-6 31 -14 67 -17 80 l-5 22 1039 0 c978 0 1041 1 1055 18 11 12 33 136 72 397 32 209 73 484 92 610 19 127 37 248 40 271 12 81 129 74 -1280 74 l-1252 0 -24 137 c-18 104 -29 143 -44 158 -18 17 -52 24 -211 44 -104 12 -197 24 -205 26 -8 1 -23 0 -32 -2z m2942 -477 c0 -8 -15 -117 -34 -243 -73 -481 -105 -700 -110 -763 -4 -36 -9 -84 -12 -107 l-6 -43 -1023 0 -1023 0 -11 63 c-6 34 -13 89 -17 122 -6 57 -29 192 -128 748 l-42 237 1203 0 c1035 0 1203 -2 1203 -14z m-1824 -1662 c59 -28 84 -67 84 -131 0 -52 -3 -58 -44 -99 -37 -38 -49 -44 -85 -44 -51 0 -90 19 -125 60 -21 25 -26 42 -26 84 0 64 24 100 84 127 51 23 69 23 112 3z m1414 -6 c59 -31 85 -68 84 -122 -2 -78 -54 -135 -130 -144 -61 -7 -100 13 -131 65 -47 80 -20 173 62 209 42 19 65 17 115 -8z"/>
<path d="M2223 2840 c-53 -21 -68 -106 -23 -130 34 -18 87 -12 104 12 44 62 -14 145 -81 118z"/>
<path d="M2690 2821 c-53 -53 -28 -121 45 -121 68 0 97 64 53 114 -37 40 -64 42 -98 7z"/>
<path d="M2382 2601 c-59 -20 -119 -72 -163 -140 -44 -69 -35 -111 23 -111 24 0 32 7 47 43 47 106 178 157 289 112 48 -21 109 -80 122 -121 13 -37 39 -50 70 -34 41 22 15 100 -61 181 -78 83 -209 111 -327 70z"/>
</g>
</svg>