<svg xmlns="http://www.w3.org/2000/svg" width="110" height="114" viewBox="0 0 110 114" fill="none"><path fill-rule="evenodd" clip-rule="evenodd" d="M101.55 108.94c0 5.06-21.54 5-47.22 5s-45.78 0-45.78-5c0-4.21 20.81-7.63 46.5-7.63s46.5 3.42 46.5 7.63z" fill="#B9D882"/><path d="M96.66 48.86c-2.27-10.56-10.87 6-14.94 5.3-4.07-.7 11.45-18.55-1.15-23.35-12.6-4.8-9.85 22.63-9.63 25.38-.24-1.92-5.37-14.41-9.74-14.95-4.37-.54-4.81 6.93-.58 12.2C44 37.36 36.51 58.16 64.63 65c19.37 4.67 34.45-.36 32.03-16.14z" fill="#B9D882"/><path d="M65.31 53.71c.354 2.232.374 4.503.06 6.74A13.449 13.449 0 0 1 64 64.81a12.32 12.32 0 0 1-3.37 4 6.826 6.826 0 0 1-.68.52.241.241 0 0 1-.09.06c-.407.302-.835.576-1.28.82a29.153 29.153 0 0 1-9 3.08h-.14c-.175.04-.352.071-.53.09a16.61 16.61 0 0 1-2.46.14h-.92c-.77-.05-1.52-.12-2.27-.21-.44 0-.87-.1-1.29-.17-.78-.12-1.54-.25-2.3-.42a27.346 27.346 0 0 1-4.88-1.52l-.58-.2a19.765 19.765 0 0 1-1.84-.92c-.4-.22-.8-.46-1.19-.71A21.878 21.878 0 0 1 29.26 68c-.31-.24-.62-.5-.92-.77a20.841 20.841 0 0 1-3.1-3.4c-.409-.59-.786-1.2-1.13-1.83a23.346 23.346 0 0 1-1.87-4.2c-.11-.3-.21-.61-.3-.91-.28-.91-.54-1.86-.77-2.84a22.555 22.555 0 0 1-.4-5.23c.122-3.828.456-7.648 1-11.44.36-2.84.35-3.93.57-6.06v-.16a1.237 1.237 0 0 1 0-.2c.046-.948.2-1.887.46-2.8l.08-.28a31.75 31.75 0 0 1 2.5-6 24.194 24.194 0 0 1 3.31-4.71C33 12.45 39 9.9 46.43 10c6.63.11 11.85 2.43 15.93 7.46 4.08 5.03 4.92 9.61 3.1 16.74a61.361 61.361 0 0 0-1.74 8.44 18.8 18.8 0 0 0 1.17 9.49c.23.499.372 1.033.42 1.58z" fill="#00adb5"/><path d="M55.67 18.39c-1.15 1.87-5.48-.75-6.86-1.2-1.38-.45-7.82-.27-7.15-2.77.67-2.5 5.68-2.31 7.94-1.62 2.26.69 8.01 2.41 6.07 5.59zM61.18 22.5c-.67 1-1.57-.16-2.2-.68-.63-.52-2.19-1.19-1.54-2.22a1.999 1.999 0 0 1 3-.18 2.37 2.37 0 0 1 .74 3.08z" fill="#cceef0"/><path d="M56.25 63.91a8.79 8.79 0 0 1-1.94 5.35c-.337.42-.7.818-1.09 1.19a30.604 30.604 0 0 1-3.66 2.87l-.11.08h-.56c-.81 0-1.67.13-2.46.14a9.086 9.086 0 0 1-.91 0c-.77-.06-1.53-.13-2.28-.23-.44 0-.87-.1-1.29-.17-.78-.12-1.54-.25-2.3-.42a27.013 27.013 0 0 1-4.87-1.52l-.57-.2c-.62-.28-1.23-.59-1.82-.92A21.213 21.213 0 0 1 29.26 68c-.31-.24-.62-.49-.92-.76a20.06 20.06 0 0 1-3.1-3.41c-.409-.59-.786-1.2-1.13-1.83a26.01 26.01 0 0 1-1.87-4.2c-.11-.3-.21-.61-.3-.91-.28-.91-.54-1.86-.77-2.84A5.389 5.389 0 0 1 23 53c4.55-1.46 10.48-1 15.12-.52 2.842.236 5.658.711 8.42 1.42 1.69.42 3.325 1.038 4.87 1.84a8.62 8.62 0 0 1 4.4 4.81c.178.506.302 1.029.37 1.56.078.597.102 1.2.07 1.8z" fill="#cceef0"/><path fill-rule="evenodd" clip-rule="evenodd" d="M54.19 29.76c-.067.468-.17.93-.31 1.38-.87 2.48-2.37 4.71-4.62 5.7-.15.07-.3.12-.46.18a6.995 6.995 0 0 1-2.28.37h-.41a6.658 6.658 0 0 1-1.45-.22l-.45-.17h-.08c-3-1-4.62-3.88-5.14-7.06a6.445 6.445 0 0 1 0-1c.016-.703.12-1.402.31-2.08a7.88 7.88 0 0 1 8-5.75 7.18 7.18 0 0 1 7 6.63 8.073 8.073 0 0 1-.11 2.02z" fill="#fff"/><path fill-rule="evenodd" clip-rule="evenodd" d="M54.19 29.76c-.067.468-.17.93-.31 1.38-.87 2.48-2.37 4.71-4.62 5.7-.15.07-.3.12-.46.18a7.015 7.015 0 0 1-2.28.37h-.4a8.128 8.128 0 0 1-1.46-.22l-.45-.17h-.08c-3-1-4.62-3.88-5.14-7.06a6.445 6.445 0 0 1 0-1 8.43 8.43 0 0 1 .31-2.08c1.3 3.24 3.65 5.69 7.33 5.89 3.68.2 6-2 7.66-5a8.08 8.08 0 0 1-.1 2.01z" fill="#E3EDEE"/><path fill-rule="evenodd" clip-rule="evenodd" d="M40.43 28c-.2 3.06 1.15 6.33 4.46 7 3.31.67 5.77-1.4 6.75-4.64a5.539 5.539 0 0 0-4.11-7.17 6.23 6.23 0 0 0-3.21.2c.91.86 1.58 1.53 1.26 3a2.94 2.94 0 0 1-5.08 1.39c-.07-.06-.06.2-.07.29V28z" fill="#303030"/><path fill-rule="evenodd" clip-rule="evenodd" d="M35 29.1c.002.445-.032.89-.1 1.33a.172.172 0 0 0 0 .07 8.189 8.189 0 0 1-1.46 3.64 5.529 5.529 0 0 1-1.55 1.5l-.27.16-.27.14a5.39 5.39 0 0 1-3 .44 7.17 7.17 0 0 1-3.37-1.23l-.33-.25a7.94 7.94 0 0 1-2.51-5.23 6.42 6.42 0 0 1 0-1c.037-.706.144-1.406.32-2.09.8-3.11 3-5.81 6.44-5.72 3.44.09 5.31 2.94 5.9 6.14.129.693.196 1.396.2 2.1z" fill="#fff"/><path fill-rule="evenodd" clip-rule="evenodd" d="M35 29.1c.002.445-.032.89-.1 1.33a.172.172 0 0 0 0 .07 9.42 9.42 0 0 1-1.46 3.64 5.529 5.529 0 0 1-1.55 1.5l-.27.16-.27.14a5.39 5.39 0 0 1-3 .44 7.17 7.17 0 0 1-3.37-1.23l-.33-.25a7.94 7.94 0 0 1-2.51-5.23 6.42 6.42 0 0 1 0-1c.037-.706.144-1.406.32-2.09.94 3 2.59 5.5 6.07 5.73 3.48.23 5.26-2.4 6.27-5.31.129.693.196 1.395.2 2.1z" fill="#E3EDEE"/><path fill-rule="evenodd" clip-rule="evenodd" d="M25.92 30.2c1.12-.35 2.4-.72 3.51-1.19-1.12-.51-2.34-1.09-3.4-1.66a.65.65 0 0 1-.33-.88.541.541 0 0 1 .8-.33c1.51.72 3.19 1.55 4.72 2.25a.62.62 0 0 1 .38.66.6.6 0 0 1-.4.63 41.176 41.176 0 0 1-4.88 1.65.591.591 0 0 1-.79-.39.52.52 0 0 1 .39-.74z" fill="#303030"/><path d="M29.13 17.41a12 12 0 0 0 5.38 4c-2.68.35-4.23-1.96-5.38-4zM40.55 20a16.56 16.56 0 0 1 8.34-2.64c-3.12-1.44-6.04.71-8.34 2.64z" fill=" #00797e"/><path fill-rule="evenodd" clip-rule="evenodd" d="M45 46.05c.17.32.38.14.24-.27-1.26-3.6-3.31-7.63-7.57-7.8-4.26-.17-7 3-9.51 5.74-.29.31 0 .58.3.32 2.65-2.36 5.28-5.18 9.17-5 4.31.18 5.63 3.65 7.37 7.01z" fill=" #00797e"/><path fill-rule="evenodd" clip-rule="evenodd" d="M17.68 87.75c.08.787.18 1.577.3 2.37.06.42.13.84.21 1.25v.3c0 .1 0 0 0 0 0 .27.1.54.15.82l.05.24c0 .17.07.34.11.52.04.18.05.24.08.37.09.39.18.81.29 1.25a87.972 87.972 0 0 0 1.08 4.07 52.382 52.382 0 0 0 .7 2.27c0 .11.07.22.11.33 1.27 3.8 2.86 7.26 4.5 8.16h21.83c.07.005.14.005.21 0h20.65l1.8-.28.43-.07 9.08-1.35 3.2-.47h.37l1.7-.24.49-.07.37-.06c.43-.72.84-1.44 1.23-2.17l.42-.8c.23-.46.46-.91.68-1.38l.33-.71c.4-.85.77-1.73 1.11-2.6.11-.26.2-.51.3-.76.1-.25.16-.44.23-.65.29-.79.55-1.59.8-2.4 0-.16.09-.32.14-.49.41-1.37.74-2.77 1-4.17 0-.14.06-.29.08-.44.1-.52.19-1 .27-1.55l.09-.64v-.37a1.37 1.37 0 0 1 0-.19v-.46c.053-.4.093-.8.12-1.2v-.43-.65-.9-.63-.75a.06.06 0 0 1 0-.06v-.79c.078-1.322.085-2.647.02-3.97 0-.2 0-.41-.07-.61 0-.18 0-.36-.07-.54a29.782 29.782 0 0 0-.33-1.8l-.06-.33c0-.19-.08-.38-.13-.56-.05-.18-.07-.32-.11-.48-.04-.16 0 0 0-.06l-.11-.43c-.21-.8-.45-1.59-.71-2.37l-.09-.23c0-.08-.07-.15-.1-.22a3.453 3.453 0 0 0-.67-.93l-.16-.16a3.266 3.266 0 0 0-.37-.28c-.22-.166-.463-.3-.72-.4a2.844 2.844 0 0 0-.49-.17h-.08l-.29-.07-2.81-.67-.25-.06-.59-.18-.8-.19-1.32-.26-1-.24-3.2-.76-.68-.19-1.56-.35c-1.21-.28-2.32-.53-3.26-.72l-.44-.09-1-.18h-.51a42.057 42.057 0 0 0-4.36-.18h-5.76c-1.43 0-3 0-4.51.07h-2.75l-8.05.23h-.7l-7.85.28H34.3c-.16 0-.38.18-.64.43s-.32.3-.5.47a9.013 9.013 0 0 1-.72.63.918.918 0 0 1-.16.11l-.1.07c-.3.203-.642.333-1 .38a1.7 1.7 0 0 1-1.18-.14l-1-.31-.38-.11-2.78-.86L24 65.5h-1.8a36.172 36.172 0 0 0-2.28 3.85c-.15.28-.29.56-.41.84-.173.348-.326.705-.46 1.07-.07.18-.13.35-.19.52l-.09.31a4.167 4.167 0 0 0-.21 1.09c-.016.1-.016.2 0 .3a43.807 43.807 0 0 0-.88 14.27z" fill="#E19671"/><path fill-rule="evenodd" clip-rule="evenodd" d="M75.13 70.64c.77 5.364.951 10.797.54 16.2-.39 8.35-2.62 17-2.58 17.75a5.999 5.999 0 0 1-.45 2.65 12.479 12.479 0 0 1-.4-3.29 103.919 103.919 0 0 0 2.86-18.81 89.802 89.802 0 0 0-.71-17.44c.21-1.1.78 2.91.74 2.94z" fill="url(#paint0_linear)"/><path fill-rule="evenodd" clip-rule="evenodd" d="M70.25 64.38c3.14.49 13.38 3 17.68 4a3.74 3.74 0 0 1 2.67 2.4c3.9 11.51 1.54 25-5.21 36.33-6 .853-11.817 1.717-17.45 2.59a120.076 120.076 0 0 0 3.22-22.81c.77-11.65-1.16-23.2-.91-22.51z" fill="#CE7057"/><path fill-rule="evenodd" clip-rule="evenodd" d="M75.13 70.64c3.6.62 7.267 1.237 11 1.85 2.27 9.88.84 21-3.27 30.91l-1-.53c3.54-9.42 4.75-19.94 2.87-29.41a925.44 925.44 0 0 1-9.55-1.55c0-.43-.02-.85-.05-1.27z" fill="#9A67AA" opacity=".45"/><path fill-rule="evenodd" clip-rule="evenodd" d="M73.19 103.86l8.69-1 1 .53-9.88 1.42c.07-.32.13-.63.19-.95z" fill="#FFC392"/><path fill-rule="evenodd" clip-rule="evenodd" d="M47.28 95.82a39.641 39.641 0 0 1-6.64.22c-.37-.04-.734-.13-1.08-.27a1 1 0 0 1-.63-1.14c0-3.55.15-7.16.27-10.75 0-.1.21-.13.32-.12.348.024.687.116 1 .27.262.131.516.278.76.44a7.74 7.74 0 0 1 1.31.93c.785.69 1.52 1.435 2.2 2.23.62-.58 1.24-1.16 1.89-1.71a14.855 14.855 0 0 1 1.66-1.27c.75-.46 1.27-1 1.61-.45.036.057.066.117.09.18.403 1.44.621 2.925.65 4.42.05 2.34.14 6.46-3.41 7.02z" fill="#EFAE92"/><path fill-rule="evenodd" clip-rule="evenodd" d="M27.22 72.63c-1.94 10.61-.35 22.22 3.88 32.43l.87-.89a61.318 61.318 0 0 1-3.4-30.48c-.46-.35-.91-.69-1.35-1.06z" fill="#CE7057"/><path fill-rule="evenodd" clip-rule="evenodd" d="M27.22 72.63c11.187-.42 22.23-.826 33.13-1.22.1.31.19.62.29.93-10.54.44-21.23.89-32.07 1.35-.46-.35-.91-.7-1.35-1.06z" fill="#CE7057"/><path fill-rule="evenodd" clip-rule="evenodd" d="M31.1 105.06c-.48 0 .66-.89.87-.89 4.3-.11 28-1 28-1v1.09s-24.1.83-28.8.78l-.07.02z" fill="#EFAE92"/><path fill-rule="evenodd" clip-rule="evenodd" d="M60.33 71.62c.31-.38-.51 32.54-.5 32.52.22.49 1.42-34.77 1.15-36.55.22-2.43-.6 4-.65 4v.03z" fill="#EFAE92"/><path fill-rule="evenodd" clip-rule="evenodd" d="M47.72 96.13a40.789 40.789 0 0 1-6.64.22 4.3 4.3 0 0 1-1.08-.27 1.05 1.05 0 0 1-.64-1.14c0-3.55.16-7.17.28-10.76 0-.09.2-.12.31-.11.347.024.686.112 1 .26.26.14.51.28.76.44.46.267.891.579 1.29.93a21.993 21.993 0 0 1 2.19 2.24c.62-.58 1.24-1.16 1.89-1.71.528-.451 1.09-.862 1.68-1.23.75-.47 1.27-1 1.61-.45.034.058.064.118.09.18.4 1.44.618 2.926.65 4.42.07 2.29.16 6.42-3.39 6.98z" fill="#CE7057"/><path d="M74 21.23a12.75 12.75 0 1 1 2.27 2.94l-3.27.41a.69.69 0 0 1-.65-1.08L74 21.23z" fill="#cceef0"/><path d="M87.12 20.4a1.69 1.69 0 0 0-1.75-1.61 1.7 1.7 0 0 0-1.7 1.69 1.751 1.751 0 1 0 3.49 0 .275.275 0 0 0-.04-.08zM85.71 7.92a6.36 6.36 0 0 0-4.17 1.48 1.371 1.371 0 0 0-.431 1.629 1.389 1.389 0 0 0 1.311.851 1.46 1.46 0 0 0 .89-.33 3.71 3.71 0 0 1 2.33-.81c1.15 0 1.84.51 1.84 1.41 0 .9-.79 1.53-2.55 1.77h-.16a1 1 0 0 0-.75 1.19l.21 1.36a1.1 1.1 0 0 0 1.09 1h.15a1.15 1.15 0 0 0 1.09-1v-.36c2.19-.45 3.93-1.5 3.93-4.06.08-2.67-1.89-4.13-4.78-4.13z" fill=" #00797e"/><defs><linearGradient id="paint0_linear" x1="74.436" y1="92.894" x2="77.602" y2="111.513" gradientUnits="userSpaceOnUse"><stop offset=".02" stop-color="#EEA076"/><stop offset=".3" stop-color="#D38C6C"/><stop offset=".76" stop-color="#AD705D"/><stop offset="1" stop-color="#9E6558"/></linearGradient></defs></svg>