<svg xmlns="http://www.w3.org/2000/svg" xmlns:xlink="http://www.w3.org/1999/xlink" version="1.1" x="0px" y="0px" viewBox="0 0 64 77.99249999999999" style="enable-background:new 0 0 64 62.394;" xml:space="preserve"><path d="M64,28.894c0-3.584-2.916-6.5-6.5-6.5h-4.499l9.464-16.392c0.534-0.925,0.676-2.003,0.4-3.036  C62.588,1.934,61.926,1.072,61,0.537c-0.925-0.534-2.004-0.676-3.035-0.399c-1.032,0.276-1.894,0.939-2.429,1.864L43.762,22.394  H20.237L8.464,2.002C7.929,1.076,7.067,0.414,6.035,0.138c-1.031-0.276-2.11-0.135-3.035,0.399C2.074,1.072,1.412,1.934,1.136,2.966  c-0.277,1.032-0.135,2.11,0.4,3.036l9.464,16.392H6.5c-3.584,0-6.5,2.916-6.5,6.5c0,2.723,1.685,5.057,4.066,6.023l3.438,23.21  c0.36,2.433,2.487,4.267,4.946,4.267h38.222c2.41,0,4.477-1.72,4.916-4.089l4.33-23.382C62.308,33.96,64,31.622,64,28.894z   M45.269,23.786l12-20.784c0.267-0.463,0.698-0.794,1.214-0.932c0.172-0.046,0.347-0.069,0.521-0.069  c0.347,0,0.689,0.091,0.997,0.269c0.463,0.267,0.794,0.698,0.932,1.214C61.071,4,61,4.539,60.732,5.002l-12,20.784  c-0.551,0.955-1.777,1.284-2.732,0.732c-0.463-0.267-0.793-0.698-0.932-1.214C44.93,24.788,45.001,24.249,45.269,23.786z   M3.067,3.484C3.206,2.968,3.537,2.537,3.999,2.27c0.308-0.178,0.65-0.269,0.997-0.269c0.173,0,0.348,0.023,0.52,0.069  c0.516,0.138,0.947,0.469,1.214,0.932l12,20.784c0.267,0.463,0.338,1.002,0.2,1.518c-0.138,0.516-0.469,0.947-0.932,1.214  c-0.956,0.551-2.181,0.223-2.732-0.732l-12-20.784C3,4.539,2.929,4,3.067,3.484z M57.798,35.394L53.623,57.94  c-0.263,1.422-1.504,2.454-2.95,2.454H12.451c-1.476,0-2.752-1.101-2.968-2.56l-3.324-22.44H6.5h51H57.798z M57.5,33.394h-51  c-2.481,0-4.5-2.019-4.5-4.5s2.019-4.5,4.5-4.5H12v-0.267l1.535,2.659c0.74,1.282,2.087,2,3.471,2c0.678,0,1.365-0.173,1.993-0.535  c0.925-0.534,1.587-1.397,1.864-2.429c0.127-0.473,0.155-0.955,0.108-1.428h22.057c-0.047,0.473-0.018,0.955,0.108,1.428  c0.276,1.032,0.938,1.895,1.864,2.429c0.628,0.363,1.315,0.535,1.993,0.535c1.383,0,2.731-0.718,3.471-2L52,24.127v0.267h5.5  c2.481,0,4.5,2.019,4.5,4.5S59.981,33.394,57.5,33.394z"/><path d="M17,55.394c1.654,0,3-1.346,3-3v-10c0-1.654-1.346-3-3-3c-1.654,0-3,1.346-3,3v10C14,54.048,15.346,55.394,17,55.394z   M16,42.394c0-0.551,0.449-1,1-1c0.551,0,1,0.449,1,1v10c0,0.551-0.449,1-1,1c-0.551,0-1-0.449-1-1V42.394z"/><path d="M27,55.394c1.654,0,3-1.346,3-3v-10c0-1.654-1.346-3-3-3c-1.654,0-3,1.346-3,3v10C24,54.048,25.346,55.394,27,55.394z   M26,42.394c0-0.551,0.449-1,1-1c0.551,0,1,0.449,1,1v10c0,0.551-0.449,1-1,1c-0.551,0-1-0.449-1-1V42.394z"/><path d="M37,55.394c1.654,0,3-1.346,3-3v-10c0-1.654-1.346-3-3-3c-1.654,0-3,1.346-3,3v10C34,54.048,35.346,55.394,37,55.394z   M36,42.394c0-0.551,0.449-1,1-1c0.551,0,1,0.449,1,1v10c0,0.551-0.449,1-1,1c-0.551,0-1-0.449-1-1V42.394z"/><path d="M47,55.394c1.654,0,3-1.346,3-3v-10c0-1.654-1.346-3-3-3c-1.654,0-3,1.346-3,3v10C44,54.048,45.346,55.394,47,55.394z   M46,42.394c0-0.551,0.449-1,1-1c0.551,0,1,0.449,1,1v10c0,0.551-0.449,1-1,1c-0.551,0-1-0.449-1-1V42.394z"/><path d="M31.293,20.101c0.195,0.195,0.451,0.293,0.707,0.293c0.256,0,0.512-0.098,0.707-0.293l7-7  c0.286-0.286,0.372-0.716,0.217-1.09c-0.155-0.373-0.52-0.617-0.924-0.617h-2v-10c0-0.552-0.448-1-1-1h-8c-0.552,0-1,0.448-1,1v10  h-2c-0.404,0-0.769,0.244-0.924,0.617c-0.155,0.374-0.069,0.804,0.217,1.09L31.293,20.101z M28,13.394c0.552,0,1-0.448,1-1v-10h6v10  c0,0.552,0.448,1,1,1h0.586L32,17.98l-4.586-4.586H28z"/>
</svg>