<svg xmlns="http://www.w3.org/2000/svg" version="1.0" width="512.000000pt" height="512.000000pt" viewBox="0 0 512.000000 512.000000" preserveAspectRatio="xMidYMid meet">

<g transform="translate(0.000000,512.000000) scale(0.100000,-0.100000)" fill="#000000" stroke="none">
<path d="M1557 5052 c-9 -9 -17 -39 -19 -66 l-3 -48 -58 -24 c-148 -62 -292 -176 -384 -301 -121 -164 -179 -318 -208 -543 -5 -38 -10 -47 -36 -59 -74 -32 -108 -145 -69 -225 25 -54 57 -78 123 -97 l48 -14 32 -96 33 -95 -23 -36 c-66 -99 -23 -230 91 -273 l43 -16 22 -147 c35 -236 67 -322 161 -447 44 -59 50 -72 50 -115 l0 -50 -103 -51 c-153 -77 -303 -135 -466 -179 -315 -86 -492 -221 -611 -465 -88 -182 -84 -138 -88 -922 -3 -686 -3 -692 18 -713 20 -20 21 -20 1715 -20 1694 0 1695 0 1715 20 21 21 21 27 18 713 -4 784 0 740 -88 922 -86 178 -209 300 -385 385 -55 26 -129 55 -165 64 -154 40 -296 95 -455 175 -205 105 -206 105 -122 204 111 131 144 213 183 454 l27 171 43 17 c60 23 111 82 119 138 9 60 0 97 -36 147 l-30 41 23 89 22 89 41 6 c94 15 163 101 152 191 -6 55 -46 117 -86 135 -27 12 -31 20 -37 69 -15 133 -53 267 -102 365 -103 208 -281 380 -479 464 l-68 29 -3 49 c-6 85 0 83 -287 83 -228 0 -253 -2 -268 -18z m425 -132 c-4 -30 19 -80 38 -80 5 0 34 -9 65 -21 l55 -20 0 -77 c-1 -92 -12 -146 -46 -219 -35 -74 -130 -173 -203 -211 l-59 -32 -58 31 c-169 89 -264 243 -264 429 l0 79 55 20 c31 12 60 21 65 21 19 0 42 50 38 80 l-5 30 162 0 162 0 -5 -30z m-589 -267 c17 -196 152 -386 334 -474 98 -47 113 -47 201 -4 184 91 332 313 332 499 0 30 4 46 13 46 20 0 136 -109 189 -179 91 -121 163 -302 181 -458 l5 -43 -824 0 -824 0 4 23 c3 12 8 45 11 72 26 197 155 425 308 547 27 21 52 38 56 38 5 0 11 -30 14 -67z m1363 -757 c18 -25 18 -47 0 -72 -14 -19 -37 -19 -903 -22 -488 -1 -903 0 -920 3 -18 3 -38 15 -44 26 -15 29 -3 68 24 79 13 5 407 8 925 7 882 -2 904 -2 918 -21z m-1637 -273 c-1 -58 -1 -58 -14 -27 -8 17 -17 43 -21 58 -5 22 -3 26 15 26 19 0 21 -5 20 -57z m1321 -58 c0 -135 7 -148 88 -159 53 -7 72 -24 72 -65 0 -30 -46 -61 -91 -61 -29 0 -42 -6 -53 -22 -7 -13 -26 -104 -41 -203 -15 -99 -36 -207 -46 -240 -72 -231 -284 -385 -529 -385 -246 0 -458 155 -529 385 -11 34 -32 144 -47 245 -32 207 -38 220 -104 220 -47 0 -80 27 -80 65 0 37 33 65 78 65 70 0 77 12 80 149 l4 121 599 0 599 0 0 -115z m-759 -1239 c132 -32 291 -18 431 38 l58 24 0 -118 0 -118 -41 -37 c-56 -50 -154 -95 -238 -108 -126 -19 -272 24 -368 108 l-43 37 0 128 0 128 68 -33 c37 -18 97 -40 133 -49z m640 -56 c18 -10 19 -24 19 -258 0 -173 -5 -267 -14 -313 -41 -192 -195 -348 -388 -394 -273 -64 -555 116 -614 394 -9 46 -14 138 -14 303 0 224 1 238 19 248 11 5 22 10 25 10 3 0 6 -35 6 -77 l0 -77 63 -61 c101 -100 261 -165 402 -165 139 0 295 63 400 162 l65 60 0 89 c0 49 3 89 6 89 3 0 14 -5 25 -10z m214 -111 c38 -17 121 -48 184 -70 l116 -38 3 -941 2 -940 -180 0 -180 0 0 320 c0 312 -1 321 -21 341 -25 25 -33 23 -151 -25 -166 -69 -222 -80 -428 -80 -172 -1 -192 1 -283 26 -54 15 -132 44 -174 63 -88 40 -106 42 -133 15 -19 -19 -20 -33 -20 -340 l0 -320 -230 0 -230 0 0 939 0 939 131 42 c73 23 157 52 187 66 30 13 56 24 57 24 2 0 5 -109 8 -242 5 -269 10 -300 73 -428 77 -155 253 -288 429 -325 325 -68 647 129 742 455 12 41 17 116 20 303 3 136 6 247 8 247 1 0 33 -14 70 -31z m-1845 -1069 l0 -920 -240 0 -241 0 4 648 c3 678 2 660 50 782 59 154 183 294 323 368 43 23 85 42 92 42 9 0 12 -191 12 -920z m2372 878 c142 -73 265 -213 325 -368 48 -122 47 -104 50 -782 l4 -648 -241 0 -240 0 0 920 c0 661 3 920 11 920 6 0 47 -19 91 -42z m-1575 -1308 c239 -79 520 -81 764 -4 45 14 89 28 96 31 11 4 13 -44 13 -256 l0 -261 -485 0 -485 0 0 260 c0 143 2 260 4 260 3 0 45 -13 93 -30z"/>
<path d="M1692 4774 c-27 -19 -29 -64 -4 -87 15 -14 42 -17 149 -17 143 0 163 8 163 63 0 46 -30 57 -165 57 -93 0 -126 -4 -143 -16z"/>
<path d="M1687 4572 c-24 -26 -21 -68 5 -86 17 -13 51 -16 149 -16 138 0 159 8 159 62 0 50 -24 58 -167 58 -113 0 -132 -2 -146 -18z"/>
<path d="M1793 1780 c-47 -19 -58 -92 -20 -128 49 -46 127 -12 127 55 0 56 -56 94 -107 73z"/>
<path d="M1776 1519 c-20 -16 -26 -29 -26 -59 0 -30 6 -43 26 -59 15 -12 37 -21 49 -21 12 0 34 9 49 21 20 16 26 29 26 59 0 30 -6 43 -26 59 -15 12 -37 21 -49 21 -12 0 -34 -9 -49 -21z"/>
<path d="M4206 3684 c-220 -53 -400 -224 -473 -449 -33 -102 -37 -254 -10 -355 39 -143 120 -270 226 -354 l61 -47 0 -786 0 -785 -41 -40 c-99 -96 -143 -214 -137 -366 3 -87 7 -105 41 -175 96 -204 311 -311 529 -266 175 36 327 185 367 359 35 150 -13 321 -120 435 l-49 52 0 756 0 756 63 31 c221 108 367 350 367 605 0 57 -3 69 -25 90 -13 14 -32 25 -41 25 -10 0 -93 -75 -185 -166 l-168 -167 -183 33 c-101 18 -186 36 -190 39 -4 3 -23 89 -42 191 l-34 185 159 161 c135 136 159 165 159 191 0 51 -24 63 -126 62 -49 0 -115 -7 -148 -15z m-49 -232 c-89 -89 -117 -123 -117 -143 0 -25 75 -437 86 -471 2 -9 11 -21 18 -27 11 -9 464 -100 500 -101 5 0 65 55 134 123 118 116 124 120 118 87 -4 -19 -25 -73 -48 -119 -97 -200 -295 -314 -521 -298 -249 17 -442 190 -494 442 -41 201 53 427 224 541 67 44 157 83 193 84 21 0 7 -18 -93 -118z m73 -1059 c41 -9 99 -13 158 -11 l92 3 0 -707 0 -708 -25 10 c-79 30 -191 32 -297 5 l-28 -7 0 722 c0 684 1 722 18 715 9 -3 46 -13 82 -22z m207 -1535 c117 -43 209 -168 220 -298 7 -89 -10 -157 -58 -229 -154 -231 -496 -205 -620 47 -20 40 -24 62 -24 152 0 96 2 110 28 158 51 96 148 171 251 192 54 11 138 3 203 -22z"/>
<path d="M4162 753 c-33 -30 -133 -215 -126 -236 8 -26 102 -188 122 -210 14 -15 32 -17 151 -15 l136 3 63 105 c34 58 62 115 62 128 0 25 -103 209 -128 230 -11 8 -55 12 -138 12 -102 0 -125 -3 -142 -17z m247 -166 l33 -62 -33 -57 -33 -58 -72 0 -73 0 -30 54 c-17 29 -31 59 -31 65 0 6 14 36 31 66 l31 55 71 0 72 0 34 -63z"/>
</g>
</svg>