<svg xmlns="http://www.w3.org/2000/svg" xmlns:xlink="http://www.w3.org/1999/xlink" width="20" height="20" viewBox="0 0 20 20"><defs><path id="a" d="M9.56 0a2.8 2.8 0 0 0-1.98.82L7 1.398l-.58-.58A2.8 2.8 0 0 0 4.44 0H2.39A2.39 2.39 0 0 0 0 2.39v9.22A2.39 2.39 0 0 0 2.39 14h5.448A6.16 6.16 0 0 0 14 7.841V2.336A2.336 2.336 0 0 0 11.664 0H9.56z"/><path id="b" d="M4.44 0a2.8 2.8 0 0 1 1.98.82l.58.579.358-.357A7.5 7.5 0 0 1 0 10V2.39A2.39 2.39 0 0 1 2.39 0z"/><path id="c" d="M7.677.35a1.398 1.398 0 0 1 1.85 2.097L4.76 6.65a1.398 1.398 0 0 1-1.883-.03L.441 4.33a1.398 1.398 0 1 1 1.915-2.037l1.51 1.418L7.676.35z"/><path id="d" d="M2.356 2.293l1.493 1.402a7.537 7.537 0 0 1-2.142 1.826L.44 4.33a1.398 1.398 0 1 1 1.915-2.037z"/></defs><g fill="none" fill-rule="evenodd"><path d="M0 0h20v20H0z"/><g transform="translate(3 3)"><use fill="#00adb5" xlink:href="#a"/><use fill=" #7fd6da" xlink:href="#b"/></g><g transform="translate(5 6.5)"><use fill="#FFC400" xlink:href="#c"/><use fill="#FF8B00" xlink:href="#d"/></g></g></svg>