<svg xmlns="http://www.w3.org/2000/svg" version="1.0" width="512.000000pt" height="512.000000pt" viewBox="0 0 512.000000 512.000000" preserveAspectRatio="xMidYMid meet">

<g transform="translate(0.000000,512.000000) scale(0.100000,-0.100000)" fill="#000000" stroke="none">
<path d="M4073 5062 c-129 -46 -213 -165 -213 -303 0 -42 -3 -48 -30 -59 -45 -19 -125 -112 -144 -166 -20 -61 -20 -157 0 -218 18 -53 99 -147 143 -165 26 -11 29 -17 34 -77 6 -78 52 -180 100 -220 99 -84 235 -103 345 -48 l62 31 62 -31 c51 -25 73 -30 132 -30 172 0 301 121 314 294 4 63 7 70 32 80 42 17 117 100 141 155 60 136 2 315 -126 390 -42 25 -42 26 -47 90 -10 119 -80 219 -187 268 -35 16 -66 22 -127 22 -70 0 -88 -4 -140 -30 l-59 -31 -52 29 c-70 38 -166 45 -240 19z m158 -114 c19 -6 45 -19 59 -29 50 -34 89 -33 165 5 80 41 129 45 190 17 76 -34 115 -103 115 -204 0 -65 19 -94 93 -142 74 -49 102 -96 101 -171 -2 -74 -37 -132 -104 -168 -68 -37 -90 -74 -90 -151 -1 -108 -53 -179 -148 -205 -53 -14 -90 -6 -161 31 -68 37 -92 36 -166 -3 -161 -85 -305 6 -305 192 0 66 -20 99 -78 129 -77 40 -112 97 -112 182 0 76 34 125 123 178 49 30 67 67 67 138 0 73 26 131 73 167 58 44 116 55 178 34z"/>
<path d="M4311 4681 c-16 -29 -15 -343 1 -359 8 -8 53 -12 135 -12 120 0 123 0 139 25 14 21 15 31 6 51 -15 31 -49 44 -118 44 l-54 0 0 108 c0 130 -10 156 -62 160 -28 2 -39 -1 -47 -17z"/>
<path d="M1946 5044 c-381 -69 -756 -347 -956 -710 -87 -156 -197 -481 -245 -719 -40 -201 -47 -311 -39 -665 7 -344 1 -437 -38 -620 -41 -194 -96 -332 -202 -513 -137 -232 -252 -519 -312 -774 -34 -145 -43 -367 -20 -467 20 -86 64 -174 121 -243 l42 -52 -24 -102 c-21 -92 -22 -104 -9 -125 21 -31 52 -39 81 -20 18 12 27 31 36 76 6 33 15 63 20 65 4 3 32 -10 61 -28 136 -86 251 -112 493 -112 l180 0 65 31 c184 88 268 265 211 444 -11 35 -18 66 -16 68 6 6 85 -9 85 -16 0 -4 -12 -61 -25 -127 -14 -66 -25 -132 -25 -147 0 -28 31 -58 60 -58 39 0 51 25 80 169 16 79 30 144 32 145 2 1 71 -4 153 -11 83 -7 194 -16 248 -19 l97 -6 0 -132 c0 -148 9 -176 59 -176 53 0 61 22 61 172 l0 136 98 6 c53 3 165 12 247 19 83 7 151 13 152 13 1 -1 15 -66 32 -146 30 -147 42 -170 83 -170 25 0 58 36 58 63 0 12 -11 76 -25 142 -13 66 -25 123 -25 126 0 4 38 14 84 23 47 9 122 28 167 41 46 13 84 23 85 22 17 -19 103 -392 129 -560 8 -49 44 -75 81 -58 37 16 42 45 27 140 -49 316 -155 654 -289 918 -34 68 -58 123 -52 123 12 0 267 -78 279 -86 5 -3 35 -49 66 -102 130 -220 231 -522 283 -847 16 -96 24 -124 41 -137 26 -22 38 -22 67 -2 29 20 29 66 -3 236 -29 160 -80 349 -128 475 -19 51 -31 90 -27 88 19 -11 102 -147 134 -217 45 -99 101 -275 137 -428 16 -69 29 -128 29 -132 0 -4 11 -15 25 -24 29 -19 60 -11 81 21 14 21 12 35 -21 171 -41 174 -82 302 -136 431 -22 51 -39 106 -39 123 0 46 -28 175 -57 265 -36 112 -79 202 -155 330 -82 136 -112 207 -134 315 -25 126 -15 308 34 625 59 375 67 468 67 765 0 277 -7 367 -52 625 -75 437 -198 683 -480 956 -215 207 -461 339 -717 384 -109 19 -313 18 -420 -1z m400 -119 c367 -70 710 -330 933 -704 57 -97 108 -244 145 -418 43 -208 76 -491 76 -652 l0 -85 -29 45 c-53 85 -127 128 -244 145 -42 6 -52 12 -88 58 -89 112 -135 237 -164 454 -38 275 -86 372 -214 433 -25 13 -89 63 -141 113 -160 153 -319 213 -491 188 -225 -32 -408 -192 -551 -477 -106 -212 -152 -401 -178 -730 -20 -267 -37 -347 -107 -525 -68 -169 -84 -238 -90 -380 -6 -148 7 -231 67 -425 97 -307 99 -415 15 -690 -57 -189 -67 -246 -67 -380 1 -123 16 -213 61 -359 37 -118 38 -165 7 -231 -27 -58 -63 -94 -126 -127 -42 -22 -55 -23 -215 -22 -189 1 -265 14 -369 64 -128 61 -261 201 -308 324 -21 54 -23 78 -23 216 1 135 4 169 28 265 71 282 168 520 307 749 131 218 209 460 240 743 7 63 10 253 8 485 -3 407 -1 431 49 658 30 139 109 377 168 512 140 318 424 586 745 703 173 63 388 82 556 50z m-51 -550 c91 -24 152 -62 255 -161 53 -50 116 -100 140 -111 55 -25 84 -52 109 -101 20 -40 45 -147 56 -247 4 -33 13 -91 21 -129 8 -38 13 -70 12 -71 -2 -2 -32 3 -68 11 -167 35 -400 -2 -400 -64 0 -10 6 -26 13 -35 11 -16 26 -17 191 -7 99 6 205 8 236 4 l58 -6 40 -82 c23 -44 64 -109 92 -143 l50 -62 0 -85 c0 -180 -46 -426 -112 -602 -52 -138 -113 -237 -207 -336 -153 -162 -322 -269 -508 -324 -102 -30 -149 -28 -260 10 -161 55 -292 137 -432 271 -101 96 -156 172 -212 290 l-43 88 19 71 c10 39 37 119 61 178 52 127 80 231 96 350 10 75 14 88 30 88 15 0 17 -3 8 -19 -5 -11 -10 -45 -10 -76 0 -49 4 -60 29 -86 22 -21 39 -29 66 -29 27 0 44 8 66 29 25 26 29 37 29 86 0 31 -5 66 -11 77 -12 23 -7 23 58 -3 61 -25 87 35 36 83 -55 51 -91 63 -191 63 l-93 0 6 65 c11 118 6 112 83 106 37 -3 113 -8 169 -12 l103 -6 12 27 c27 60 -49 96 -223 103 l-117 4 14 62 c35 151 122 356 205 478 79 115 195 211 295 242 97 30 145 32 229 11z m1004 -1260 c132 -68 130 -271 -5 -415 -40 -43 -52 -50 -85 -50 -22 0 -39 3 -39 7 0 20 32 181 40 200 7 16 21 25 50 29 46 7 63 23 63 60 0 36 -22 54 -66 56 l-37 1 0 64 c0 61 1 63 25 63 15 0 39 -7 54 -15z m175 -480 c-8 -72 -31 -224 -50 -340 -47 -280 -56 -494 -26 -637 22 -105 75 -225 177 -398 52 -89 104 -208 121 -275 7 -30 7 -30 -42 16 -27 25 -70 58 -95 72 -29 17 -60 48 -83 82 -20 30 -46 61 -59 69 -12 9 -97 38 -189 66 -170 52 -196 54 -243 24 -17 -11 -32 -8 -99 18 -205 80 -296 200 -311 416 l-6 77 77 50 c159 102 324 284 404 445 18 36 34 66 35 68 2 2 17 -4 34 -12 95 -50 218 32 208 139 -3 37 1 45 52 100 31 33 67 82 81 107 13 26 25 46 27 45 1 -1 -5 -61 -13 -132z m-269 -130 c0 -23 -34 -33 -45 -14 -13 20 1 40 24 37 13 -2 21 -10 21 -23z m-1697 -496 c51 -48 126 -108 167 -135 l76 -49 -6 -77 c-11 -151 -64 -266 -154 -332 -46 -34 -152 -89 -158 -82 -2 2 3 32 11 67 36 163 28 304 -31 504 -47 160 -83 288 -83 299 0 4 19 -18 43 -50 24 -33 85 -98 135 -145z m652 -324 c72 0 101 6 187 36 l103 36 5 -33 c3 -19 7 -51 10 -71 18 -123 90 -253 178 -324 53 -42 179 -107 254 -129 39 -12 43 -18 106 -139 35 -69 80 -163 98 -209 28 -71 31 -84 19 -92 -17 -11 -235 -64 -326 -80 -332 -58 -835 -62 -1194 -9 -217 31 -242 39 -252 74 -15 51 -11 254 6 333 21 95 28 108 73 123 78 25 200 88 250 128 89 72 159 200 178 326 3 22 8 54 11 71 l4 31 103 -36 c86 -30 115 -36 187 -36z"/>
<path d="M2616 3300 c-42 -13 -99 -55 -118 -88 -15 -26 -16 -31 -2 -50 19 -27 34 -28 76 -2 43 26 53 25 34 -2 -10 -15 -16 -45 -16 -84 0 -57 3 -64 31 -88 43 -36 91 -35 130 3 25 25 29 37 29 83 0 29 -7 66 -15 82 -13 24 -13 27 0 23 8 -4 40 -11 72 -18 51 -10 63 -10 94 5 37 17 62 54 51 73 -4 6 -27 13 -52 16 -25 2 -76 16 -115 30 -72 27 -144 33 -199 17z"/>
<path d="M2032 2798 c-50 -24 -34 -91 31 -124 53 -28 95 -33 149 -19 91 23 140 102 86 139 -30 21 -43 20 -78 -6 -33 -24 -84 -26 -109 -5 -24 22 -53 27 -79 15z"/>
<path d="M1958 2463 c-85 -3 -99 -6 -108 -23 -17 -32 4 -58 62 -75 28 -8 77 -15 107 -15 30 0 75 -7 98 -16 40 -16 46 -16 86 0 23 9 68 16 98 16 113 0 195 42 170 89 -9 16 -27 19 -137 24 -81 3 -136 1 -151 -6 -16 -7 -30 -7 -48 1 -14 7 -38 11 -53 10 -15 -1 -71 -4 -124 -5z"/>
<path d="M2066 2259 c-79 -62 51 -150 157 -106 49 21 66 57 43 92 -15 23 -22 25 -74 23 -31 -2 -66 1 -78 5 -15 5 -29 1 -48 -14z"/>
<path d="M437 4610 c-39 -12 -53 -25 -84 -80 -19 -34 -39 -54 -70 -69 -110 -53 -110 -172 0 -239 35 -21 59 -45 75 -75 28 -52 66 -77 121 -77 47 0 100 40 121 90 7 18 30 41 54 55 58 34 86 66 92 107 9 56 -17 103 -75 135 -36 20 -57 41 -76 74 -37 70 -95 98 -158 79z m145 -239 l49 -28 -50 -31 c-31 -20 -59 -48 -76 -76 -15 -26 -28 -46 -30 -46 -2 0 -17 22 -34 50 -19 31 -45 57 -70 69 -22 12 -42 24 -45 29 -2 4 16 20 42 34 33 18 56 42 77 77 l29 51 29 -51 c21 -35 44 -58 79 -78z"/>
<path d="M3928 3030 c-14 -10 -31 -32 -37 -48 -6 -15 -28 -37 -48 -47 -41 -23 -73 -68 -73 -105 0 -37 35 -88 74 -107 20 -9 40 -29 47 -45 18 -43 55 -68 103 -68 48 0 80 19 101 61 9 16 33 40 55 54 42 27 70 69 70 107 0 35 -33 81 -73 103 -20 10 -42 32 -48 47 -27 66 -117 91 -171 48z m103 -160 c9 -10 25 -23 35 -29 19 -11 19 -11 0 -22 -23 -14 -47 -40 -62 -65 -10 -17 -12 -17 -27 11 -8 17 -27 37 -41 45 -14 7 -26 16 -26 20 0 4 12 13 26 20 14 8 33 28 41 45 15 28 17 28 27 11 6 -11 18 -27 27 -36z"/>
</g>
</svg>